<?xml version="1.0" encoding="UTF-8"?><svg id="Ebene_1" xmlns="http://www.w3.org/2000/svg" viewBox="0 0 2000 1007.19"><rect y="7.74" width="2000" height="999.45" fill="none"/><path d="M223.63,254.58h47.79l108.16,235.64h2.31l106.06-235.64h46.95v307.24h-46.95v-251.86h-1.47l-114.03,251.86h-9.64l-115.29-249.77h-3.14v249.77h-20.75V254.58Z" fill="#f5dbab"/><path d="M719.15,247.62l130.8,314.19h-47.58l-42.34-102.41h-119.27l-43.81,102.41h-23.48l133.94-314.19h11.74ZM648.93,439.47h102.5l-50.52-121.64-51.98,121.64Z" fill="#f5dbab"/><path d="M880.55,254.58h46.74v199.5c0,13.13,2.02,25.45,6.08,36.96,4.05,11.51,9.85,21.59,17.4,30.24,7.55,8.65,16.66,15.49,27.35,20.51,10.69,5.02,22.6,7.53,35.74,7.53s25.22-2.51,35.84-7.53c10.62-5.02,19.67-11.85,27.15-20.51,7.47-8.65,13.21-18.73,17.19-30.24,3.98-11.51,5.97-23.83,5.97-36.96v-199.5h20.54v199.5c0,15.76-2.31,30.58-6.92,44.49-4.61,13.9-11.84,26.07-21.69,36.49-9.85,10.43-22.46,18.69-37.83,24.79-15.37,6.1-33.82,9.15-55.34,9.15-19.15,0-36.09-3.05-50.83-9.15-14.74-6.1-27.11-14.4-37.1-24.91-9.99-10.5-17.54-22.82-22.64-36.96-5.1-14.13-7.65-29.23-7.65-45.3v-198.11Z" fill="#f5dbab"/><path d="M1191.61,254.58h96.42c16.63,0,31.23,1.97,43.81,5.91,12.58,3.94,23.06,9.46,31.44,16.57,8.38,7.11,14.71,15.56,18.97,25.37,4.26,9.81,6.39,20.51,6.39,32.09,0,9.58-1.65,18.54-4.93,26.88-3.28,8.34-7.9,15.87-13.83,22.59-5.94,6.72-13.1,12.51-21.49,17.38-8.38,4.87-17.61,8.69-27.67,11.47l101.24,148.98h-54.29l-96.63-144.35h-32.7v144.35h-46.74V254.58ZM1238.35,401.94h27.04c10.48,0,20.15-1.54,29.03-4.63,8.87-3.09,16.56-7.45,23.06-13.09,6.5-5.64,11.56-12.47,15.2-20.51,3.63-8.03,5.45-17.07,5.45-27.11,0-9.27-1.43-17.76-4.3-25.49-2.87-7.72-6.92-14.33-12.16-19.81-5.24-5.48-11.46-9.77-18.66-12.86-7.2-3.09-15.06-4.63-23.58-4.63h-41.08v128.13Z" fill="#f5dbab"/><path d="M1459.91,254.58h46.74v307.24h-46.74V254.58Z" fill="#f5dbab"/><path d="M1723.18,568.99c-21.52,0-41.61-4.25-60.26-12.74-18.66-8.49-34.87-20.12-48.63-34.87-13.77-14.75-24.6-31.97-32.49-51.67-7.9-19.69-11.84-40.74-11.84-63.14,0-14.67,1.78-28.81,5.35-42.4,3.56-13.59,8.63-26.26,15.2-38,6.57-11.74,14.5-22.43,23.79-32.09,9.29-9.65,19.6-17.92,30.92-24.79,11.32-6.87,23.55-12.2,36.68-15.99,13.13-3.78,26.9-5.68,41.29-5.68s28.16,1.89,41.29,5.68c13.13,3.79,25.4,9.12,36.79,15.99,11.39,6.88,21.7,15.14,30.92,24.79,9.22,9.66,17.15,20.35,23.79,32.09,6.64,11.74,11.74,24.41,15.3,38,3.56,13.6,5.34,27.73,5.34,42.4s-1.78,29.16-5.34,42.98c-3.57,13.83-8.67,26.76-15.3,38.81-6.64,12.05-14.57,23.02-23.79,32.9-9.22,9.89-19.53,18.38-30.92,25.49-11.39,7.11-23.65,12.59-36.79,16.45-13.14,3.86-26.9,5.79-41.29,5.79ZM1723.18,553.7c15.93,0,30.01-3.67,42.24-11.01,12.23-7.33,22.53-17.57,30.92-30.7,8.38-13.13,14.71-28.65,18.97-46.57,4.26-17.92,6.39-37.54,6.39-58.85s-2.13-40.55-6.39-58.16c-4.26-17.61-10.59-32.79-18.97-45.53-8.38-12.74-18.69-22.63-30.92-29.66-12.23-7.03-26.31-10.54-42.24-10.54s-30.43,3.52-42.66,10.54c-12.23,7.03-22.5,16.91-30.81,29.66-8.32,12.74-14.57,27.92-18.76,45.53-4.19,17.61-6.29,37-6.29,58.16s2.1,40.93,6.29,58.85c4.19,17.92,10.45,33.44,18.76,46.57,8.31,13.13,18.58,23.37,30.81,30.7,12.23,7.34,26.44,11.01,42.66,11.01Z" fill="#f5dbab"/><path d="M152.82,359.42h1.08c.11,1.17.29,2.22.52,3.14.24.92.6,1.8,1.09,2.64.49.84,1.14,1.67,1.94,2.48.8.82,1.81,1.71,3.02,2.67l11.07,8.71c.36-1.78.86-3.33,1.49-4.64.63-1.31,1.38-2.4,2.23-3.27.85-.87,1.8-1.51,2.85-1.93,1.05-.42,2.17-.63,3.36-.63,1.1,0,2.12.19,3.06.58.95.39,1.8.93,2.55,1.62.76.69,1.41,1.5,1.97,2.44.56.93,1,1.94,1.32,3.03.32,1.09.55,2.48.7,4.17.14,1.69.21,3.67.21,5.96v15.47h-1.02v-1.6c0-.8-.1-1.49-.31-2.09-.21-.6-.51-1.12-.91-1.56-.66-.55-2.18-.82-4.54-.82h-24.86c-2.21,0-3.62.21-4.23.63-1.02.71-1.53,1.99-1.53,3.84v1.6h-1.08v-18.27h1.08v1.67c0,1.61.43,2.82,1.28,3.62.53.61,2.02.91,4.48.91h11.15c-.06-.36-.09-.69-.1-.99,0-.3-.01-.61-.01-.93,0-.34.01-.71.04-1.13.03-.42.05-.91.07-1.48l-17.99-14.43v-11.42ZM177.62,376.44c-1.02.5-1.91,1.26-2.65,2.28-.75,1.02-1.33,2.3-1.75,3.84-.42,1.54-.62,3.36-.62,5.46v1.79h16.06c.15-1.09.27-2.05.35-2.88.09-.83.13-1.51.13-2.06-.02-1.4-.23-2.67-.64-3.8-.41-1.13-.96-2.1-1.67-2.89s-1.56-1.41-2.55-1.84c-.99-.43-2.1-.64-3.31-.64s-2.33.25-3.35.75Z" fill="#f5dbab"/><path d="M138.74,342.69c1.22,0,2.26.42,3.11,1.27.85.85,1.28,1.93,1.28,3.23s-.41,2.39-1.24,3.26c-.82.86-1.87,1.29-3.15,1.29-.62,0-1.2-.12-1.73-.36-.53-.24-.97-.56-1.34-.98-.37-.42-.66-.9-.87-1.45-.21-.55-.32-1.14-.32-1.76s.11-1.21.34-1.76c.23-.55.53-1.03.92-1.43s.83-.72,1.34-.96c.51-.24,1.07-.36,1.66-.36Z" fill="#f5dbab"/><path d="M191.3,356.08h-1.55c0-1.23-.08-2.24-.25-3.03-.16-.79-.47-1.4-.92-1.85-.45-.44-1.08-.74-1.88-.9-.8-.16-1.83-.24-3.08-.24h-20.02c-1.8,0-3.16.21-4.09.62-.93.42-1.39,1.2-1.39,2.34,0,.4.05.85.16,1.33.11.49.27,1.06.49,1.72l-1.47.56-4.49-11.9v-1.85h30.8c1.25,0,2.28-.09,3.08-.26.8-.17,1.43-.48,1.88-.92.45-.44.76-1.06.92-1.85.16-.79.25-1.8.25-3.03h1.55v19.25Z" fill="#f5dbab"/><path d="M171.31,277.18c1.56,0,3.13.18,4.73.55,1.6.37,3.13.91,4.61,1.65,1.48.73,2.86,1.65,4.16,2.76,1.29,1.11,2.42,2.4,3.38,3.86.96,1.46,1.72,3.11,2.28,4.96.55,1.84.83,3.86.83,6.05,0,2.81-.51,5.37-1.54,7.7-1.03,2.33-2.42,4.33-4.16,6.01-1.74,1.68-3.76,2.98-6.06,3.9-2.3.92-4.7,1.38-7.21,1.38s-4.85-.45-7.19-1.34c-2.34-.89-4.41-2.18-6.24-3.86-1.82-1.68-3.29-3.72-4.41-6.12-1.12-2.4-1.68-5.1-1.68-8.12s.48-5.53,1.43-7.9,2.26-4.41,3.92-6.12c1.66-1.71,3.62-3.03,5.88-3.97,2.26-.94,4.68-1.4,7.26-1.4ZM174.36,285.34c-2.69,0-5.2.29-7.52.88-2.32.59-4.34,1.42-6.04,2.5-1.7,1.08-3.04,2.4-4.02,3.95-.98,1.55-1.46,3.29-1.46,5.22,0,1.14.22,2.3.67,3.49.45,1.18,1.2,2.26,2.26,3.22,1.06.97,2.46,1.75,4.22,2.35,1.76.6,3.95.9,6.59.9s5.05-.3,7.4-.9c2.35-.6,4.41-1.45,6.18-2.57,1.77-1.11,3.17-2.45,4.22-4.01,1.04-1.56,1.56-3.31,1.56-5.24,0-1.46-.24-2.79-.73-3.99-.49-1.2-1.29-2.22-2.4-3.07-1.11-.85-2.56-1.51-4.35-2-1.79-.48-3.99-.72-6.57-.72Z" fill="#f5dbab"/><path d="M209.02,562.29h-73.29v-19.96h3.1v13.17h66.95v-13.17h3.23v19.96Z" fill="#f5dbab"/><path d="M191.3,487.6h-1.55c0-1.63-.12-2.89-.37-3.78-.25-.89-.64-1.55-1.18-1.97-.54-.42-1.26-.68-2.14-.77-.88-.09-1.95-.14-3.21-.14h-16.18c-1.69,0-3.1.14-4.25.41s-2.07.69-2.78,1.27c-.71.57-1.22,1.29-1.53,2.15-.31.86-.47,1.86-.47,3.01,0,.66.08,1.4.22,2.2.15.8.42,1.65.8,2.54.38.89.9,1.83,1.55,2.83.65,1,1.48,2.05,2.49,3.17h20.14c1.33,0,2.44-.05,3.33-.16.89-.11,1.59-.38,2.12-.81.53-.44.91-1.1,1.12-1.99.22-.89.33-2.12.33-3.69h1.55v21h-1.55c0-1.75-.14-3.09-.41-4.03-.27-.93-.69-1.61-1.27-2.01-.57-.41-1.29-.63-2.17-.68-.87-.05-1.89-.07-3.06-.07h-16.18c-1.66,0-3.07.17-4.23.5-1.16.33-2.1.8-2.82,1.4-.72.6-1.25,1.34-1.57,2.21-.33.87-.49,1.85-.49,2.93s.16,2.13.47,3.14c.31,1.01.71,1.96,1.21,2.84.49.89,1.04,1.72,1.65,2.51.61.78,1.22,1.49,1.82,2.12h20.14c1.58,0,2.83-.1,3.74-.29.91-.2,1.6-.54,2.06-1.04.46-.5.76-1.18.9-2.06.14-.87.2-1.98.2-3.3h1.55v20.55h-1.55c0-1.33-.09-2.39-.27-3.19-.18-.8-.51-1.43-1-1.88-.49-.45-1.18-.75-2.08-.91-.9-.15-2.08-.23-3.55-.23h-14.34c-2.07,0-3.85,0-5.33.02-1.48.02-2.64.2-3.47.54-.83.35-1.33.95-1.49,1.81s.03,2.14.57,3.83l-1.47.77-4.49-12.66v-1.96l7.88.05c-1.63-1.69-2.97-3.19-4-4.5-1.03-1.31-1.84-2.53-2.41-3.67-.57-1.13-.96-2.2-1.16-3.19-.2-1-.31-2.01-.31-3.03,0-1.24.16-2.41.47-3.53.31-1.12.79-2.13,1.43-3.06.64-.92,1.46-1.72,2.45-2.4.99-.68,2.17-1.18,3.53-1.52-1.61-1.54-2.91-2.94-3.92-4.21-1.01-1.27-1.81-2.47-2.41-3.62-.6-1.15-1.01-2.26-1.23-3.35-.22-1.09-.33-2.2-.33-3.35,0-1.69.25-3.21.74-4.55.49-1.34,1.29-2.49,2.39-3.44,1.1-.95,2.53-1.68,4.29-2.2,1.76-.51,3.9-.77,6.43-.77h16.18c1.42,0,2.57-.09,3.47-.27.9-.18,1.61-.51,2.12-1,.52-.48.86-1.12,1.04-1.92.18-.8.27-1.83.27-3.1h1.55v20.51Z" fill="#f5dbab"/><path d="M171.31,422.48c1.56,0,3.13.19,4.73.58,1.6.39,3.13.96,4.61,1.73,1.48.77,2.86,1.74,4.16,2.91,1.29,1.17,2.42,2.52,3.38,4.06.96,1.54,1.72,3.28,2.28,5.22.55,1.94.83,4.06.83,6.37,0,2.95-.51,5.66-1.54,8.1-1.03,2.45-2.42,4.56-4.16,6.32-1.74,1.77-3.76,3.14-6.06,4.11s-4.7,1.45-7.21,1.45-4.85-.47-7.19-1.41-4.41-2.29-6.24-4.06c-1.82-1.77-3.29-3.92-4.41-6.44-1.12-2.52-1.68-5.37-1.68-8.54s.48-5.82,1.43-8.31,2.26-4.64,3.92-6.44c1.66-1.8,3.62-3.19,5.88-4.18,2.26-.98,4.68-1.48,7.26-1.48ZM174.36,431.06c-2.69,0-5.2.31-7.52.92-2.32.62-4.34,1.49-6.04,2.63-1.7,1.14-3.04,2.52-4.02,4.16-.98,1.63-1.46,3.46-1.46,5.49,0,1.2.22,2.42.67,3.67.45,1.25,1.2,2.38,2.26,3.39,1.06,1.02,2.46,1.84,4.22,2.47,1.76.63,3.95.95,6.59.95s5.05-.32,7.4-.95c2.35-.63,4.41-1.53,6.18-2.7,1.77-1.17,3.17-2.58,4.22-4.22,1.04-1.65,1.56-3.49,1.56-5.52,0-1.54-.24-2.94-.73-4.2-.49-1.26-1.29-2.34-2.4-3.23-1.11-.89-2.56-1.59-4.35-2.1-1.79-.51-3.99-.76-6.57-.76Z" fill="#f5dbab"/><path d="M155.68,416.5h-27.21v-4.53h27.21v4.53Z" fill="#f5dbab"/><path d="M166.88,323.88v4.73l-14.06,4.58v-13.83l14.06,4.53Z" fill="#f5dbab"/><path d="M177.25,328.92v-4.73l14.06-4.58v13.83l-14.06-4.53Z" fill="#f5dbab"/><path d="M209.02,274.97h-3.31v-13.13h-66.95v13.13h-3.1v-19.92h73.37v19.92Z" fill="#f5dbab"/><path d="M153.13,653.78l41.99-33.74h10.78l-37.5,30.47,46.32,53.18h-21.89l-39.7-45.75v45.75h-16.67v-121.56l11.93-4.74h4.74v76.38Z" fill="#f5dbab"/><path d="M243.97,620.04v59.55c0,2.07.48,4.03,1.43,5.88.95,1.85,2.27,3.46,3.96,4.82,1.69,1.36,3.64,2.44,5.84,3.23,2.21.79,4.59,1.18,7.15,1.18,1.63,0,3.39-.35,5.27-1.06s3.72-1.67,5.51-2.9,3.47-2.67,5.02-4.33c1.55-1.66,2.87-3.42,3.96-5.27v-61.11h16.5v83.65h-16.5v-15.69c-1.47,2.4-3.31,4.66-5.51,6.78-2.21,2.12-4.59,3.98-7.15,5.55-2.56,1.58-5.2,2.83-7.92,3.76-2.72.93-5.31,1.39-7.76,1.39-3.65,0-7.08-.68-10.29-2.04-3.21-1.36-6.02-3.21-8.41-5.55-2.4-2.34-4.29-5.09-5.68-8.25-1.39-3.16-2.08-6.51-2.08-10.05v-59.55h16.67Z" fill="#f5dbab"/><path d="M339.96,618.49h4.74v16.91c5.06-5.66,10.32-9.9,15.77-12.7,5.45-2.8,10.97-4.21,16.58-4.21,2.94,0,5.68.65,8.21,1.96,2.53,1.31,4.75,3.1,6.66,5.39,1.91,2.29,3.4,4.97,4.49,8.05,1.09,3.08,1.63,6.36,1.63,9.84v59.96h-16.58v-57.1c0-2.78-.33-5.21-.98-7.31-.65-2.1-1.58-3.85-2.78-5.27-1.2-1.42-2.6-2.49-4.21-3.23-1.61-.74-3.39-1.1-5.35-1.1-1.74,0-3.59.3-5.56.9-1.96.6-3.96,1.43-6,2.49-2.04,1.06-4.07,2.33-6.09,3.8-2.02,1.47-3.95,3.1-5.8,4.9v61.92h-16.67v-80.55l11.93-4.66Z" fill="#f5dbab"/><path d="M452.7,699.69c2.23,0,4.3-.34,6.21-1.02,1.91-.68,3.55-1.59,4.94-2.74s2.46-2.46,3.23-3.96c.76-1.5,1.14-3.04,1.14-4.62,0-2.56-.64-4.79-1.92-6.7-1.28-1.91-2.97-3.61-5.06-5.11-2.1-1.5-4.48-2.87-7.15-4.12-2.67-1.25-5.39-2.55-8.17-3.88-2.78-1.33-5.5-2.75-8.17-4.25-2.67-1.5-5.05-3.25-7.15-5.27-2.1-2.01-3.79-4.34-5.06-6.98-1.28-2.64-1.92-5.73-1.92-9.27,0-3.32.71-6.41,2.12-9.27,1.42-2.86,3.39-5.32,5.92-7.39,2.53-2.07,5.54-3.69,9.03-4.86,3.48-1.17,7.3-1.76,11.44-1.76,2.78,0,5.36.19,7.76.57,2.4.38,4.75,1.12,7.07,2.21,2.31,1.09,4.62,2.66,6.9,4.7,2.29,2.04,4.71,4.7,7.27,7.97l-6.13,5.47c-3.16-5.17-6.69-9.03-10.58-11.56-3.89-2.53-8.05-3.8-12.46-3.8-2.4,0-4.57.29-6.54.86-1.96.57-3.64,1.36-5.02,2.37-1.39,1.01-2.48,2.19-3.27,3.55-.79,1.36-1.18,2.81-1.18,4.33,0,2.51.69,4.68,2.08,6.54s3.23,3.53,5.51,5.02c2.29,1.5,4.89,2.87,7.8,4.13,2.91,1.25,5.88,2.53,8.9,3.84,3.02,1.31,5.99,2.72,8.9,4.25,2.91,1.53,5.51,3.28,7.8,5.27,2.29,1.99,4.13,4.29,5.51,6.9,1.39,2.61,2.08,5.67,2.08,9.15s-.65,6.85-1.96,9.93c-1.31,3.08-3.28,5.75-5.92,8.01-2.64,2.26-5.95,4.04-9.93,5.35-3.98,1.31-8.66,1.96-14.05,1.96-2.45,0-4.97-.19-7.56-.57-2.59-.38-5.19-1.13-7.8-2.25-2.61-1.12-5.23-2.68-7.84-4.7-2.61-2.01-5.17-4.66-7.68-7.92l6.78-6.13c2.01,2.83,3.95,5.24,5.8,7.23,1.85,1.99,3.74,3.62,5.68,4.9,1.93,1.28,3.92,2.21,5.96,2.78,2.04.57,4.26.86,6.66.86Z" fill="#f5dbab"/><path d="M525.65,591.61h4.74v28.43h18.63v7.11h-18.63v58.9c0,1.25.23,2.42.69,3.51.46,1.09,1.09,2.04,1.88,2.86.79.82,1.73,1.46,2.82,1.92,1.09.46,2.29.69,3.59.69,1.85,0,3.54-.46,5.06-1.39,1.52-.93,2.86-2.07,4-3.43l4.17,2.78c-2.29,3.87-5.26,6.92-8.9,9.15-3.65,2.23-8.17,3.35-13.56,3.35-2.78,0-5.2-.48-7.27-1.43-2.07-.95-3.77-2.29-5.11-4-1.33-1.71-2.33-3.76-2.98-6.13-.65-2.37-.98-5-.98-7.88v-58.9h-14.54v-3.1l14.54-4v-23.77l11.85-4.66Z" fill="#f5dbab"/><path d="M584.71,688.99c1.2,0,2.34.23,3.43.69,1.09.46,2.04,1.08,2.86,1.84s1.46,1.67,1.92,2.74c.46,1.06.69,2.17.69,3.31,0,1.25-.23,2.4-.69,3.43-.46,1.04-1.1,1.95-1.92,2.74s-1.77,1.4-2.86,1.84c-1.09.44-2.23.65-3.43.65s-2.42-.22-3.51-.65c-1.09-.44-2.04-1.05-2.86-1.84s-1.46-1.7-1.92-2.74c-.46-1.03-.69-2.18-.69-3.43,0-1.14.23-2.25.69-3.31.46-1.06,1.1-1.97,1.92-2.74s1.77-1.38,2.86-1.84c1.09-.46,2.26-.69,3.51-.69Z" fill="#f5dbab"/><path d="M628.99,618.49h2.53l2.21,17.07c1.31-2.5,2.94-4.79,4.9-6.86,1.96-2.07,4.13-3.87,6.49-5.39s4.87-2.71,7.52-3.55c2.64-.84,5.32-1.27,8.05-1.27,2.45,0,4.86.33,7.23.98s4.59,1.69,6.66,3.1l-5.23,13.97c-1.09-1.2-2.23-2.16-3.43-2.9-1.2-.74-2.42-1.31-3.68-1.72-1.25-.41-2.53-.67-3.84-.78-1.31-.11-2.61-.16-3.92-.16-2.07,0-4.1.3-6.09.9-1.99.6-3.88,1.48-5.68,2.66-1.8,1.17-3.46,2.67-4.98,4.49-1.53,1.83-2.86,3.96-4,6.41v58.25h-16.58v-80.63l11.85-4.58Z" fill="#f5dbab"/><path d="M741.48,703.7c-2.18-1.09-4.02-2.63-5.51-4.62-1.5-1.99-2.25-4.26-2.25-6.82-1.96,1.47-3.88,3-5.76,4.58-1.88,1.58-3.92,3.01-6.13,4.29-2.21,1.28-4.66,2.33-7.35,3.15-2.7.82-5.81,1.22-9.35,1.22-3.27,0-6.22-.53-8.86-1.59-2.64-1.06-4.88-2.52-6.7-4.37-1.83-1.85-3.24-4.06-4.25-6.62-1.01-2.56-1.51-5.31-1.51-8.25,0-3.59.71-6.83,2.12-9.72,1.42-2.89,3.36-5.46,5.84-7.72,2.48-2.26,5.35-4.28,8.62-6.05,3.27-1.77,6.75-3.35,10.46-4.74,3.7-1.39,7.52-2.63,11.44-3.72,3.92-1.09,7.73-2.1,11.44-3.02v-5.23c0-3.81-.27-7.03-.82-9.64-.54-2.61-1.39-4.72-2.53-6.33-1.14-1.61-2.6-2.75-4.37-3.43-1.77-.68-3.88-1.02-6.33-1.02s-4.49.46-6.45,1.39-3.69,2.16-5.19,3.72c-1.5,1.55-2.72,3.38-3.68,5.47-.95,2.1-1.59,4.32-1.92,6.66h-15.19c.44-3.59,1.67-6.81,3.72-9.64,2.04-2.83,4.62-5.21,7.72-7.15,3.1-1.93,6.63-3.42,10.58-4.45,3.95-1.03,8.05-1.55,12.29-1.55,5.45,0,10.02.53,13.72,1.59,3.7,1.06,6.67,2.55,8.9,4.45,2.23,1.91,3.83,4.24,4.78,6.99.95,2.75,1.43,5.79,1.43,9.11v51.63c0,2.56.75,4.83,2.25,6.82,1.5,1.99,3.34,3.53,5.51,4.62h-16.67ZM733.72,655.01c-2.4.76-4.87,1.63-7.43,2.61-2.56.98-5.06,2.08-7.52,3.31s-4.79,2.55-7.03,3.96c-2.23,1.42-4.19,2.94-5.88,4.58-1.69,1.63-3.02,3.35-4,5.15-.98,1.8-1.47,3.68-1.47,5.64,0,2.07.38,4.02,1.14,5.84.76,1.83,1.77,3.43,3.02,4.82,1.25,1.39,2.7,2.48,4.33,3.27,1.63.79,3.32,1.18,5.06,1.18,1.85,0,3.62-.25,5.31-.74,1.69-.49,3.32-1.16,4.9-2,1.58-.84,3.16-1.81,4.74-2.9,1.58-1.09,3.19-2.26,4.82-3.51v-31.21Z" fill="#f5dbab"/><path d="M793.93,620.04v59.55c0,2.07.48,4.03,1.43,5.88.95,1.85,2.27,3.46,3.96,4.82,1.69,1.36,3.64,2.44,5.84,3.23,2.21.79,4.59,1.18,7.15,1.18,1.63,0,3.39-.35,5.27-1.06s3.72-1.67,5.51-2.9,3.47-2.67,5.02-4.33c1.55-1.66,2.87-3.42,3.96-5.27v-61.11h16.5v83.65h-16.5v-15.69c-1.47,2.4-3.31,4.66-5.51,6.78-2.21,2.12-4.59,3.98-7.15,5.55-2.56,1.58-5.2,2.83-7.92,3.76-2.72.93-5.31,1.39-7.76,1.39-3.65,0-7.08-.68-10.29-2.04-3.21-1.36-6.02-3.21-8.41-5.55-2.4-2.34-4.29-5.09-5.68-8.25-1.39-3.16-2.08-6.51-2.08-10.05v-59.55h16.67Z" fill="#f5dbab"/><path d="M889.92,618.49h4.74v17.32c2.12-2.29,4.52-4.48,7.19-6.58,2.67-2.1,5.42-3.95,8.25-5.55,2.83-1.61,5.66-2.87,8.5-3.8,2.83-.93,5.53-1.39,8.09-1.39s4.94.44,7.48,1.31c2.53.87,4.87,2.1,7.03,3.68,2.15,1.58,4,3.45,5.56,5.6,1.55,2.15,2.57,4.51,3.06,7.07,1.36-2.45,3.25-4.75,5.68-6.9,2.42-2.15,5.11-4.02,8.05-5.6,2.94-1.58,6.06-2.83,9.35-3.76,3.29-.93,6.52-1.39,9.68-1.39s6.11.69,8.86,2.08c2.75,1.39,5.16,3.27,7.23,5.64,2.07,2.37,3.7,5.15,4.9,8.33,1.2,3.19,1.8,6.58,1.8,10.17v58.98h-16.58v-56.7c0-2.34-.4-4.56-1.18-6.66-.79-2.1-1.87-3.93-3.23-5.51-1.36-1.58-2.96-2.83-4.78-3.76-1.83-.93-3.75-1.39-5.76-1.39-2.29,0-4.62.31-6.99.94s-4.62,1.48-6.74,2.57c-2.12,1.09-4.06,2.36-5.8,3.8-1.74,1.44-3.13,2.98-4.17,4.62v62.09h-16.58v-56.7c0-2.34-.41-4.56-1.23-6.66-.82-2.1-1.91-3.93-3.27-5.51-1.36-1.58-2.97-2.83-4.82-3.76-1.85-.93-3.79-1.39-5.8-1.39-2.12,0-4.32.33-6.58.98-2.26.65-4.47,1.53-6.62,2.61-2.15,1.09-4.15,2.36-6,3.8-1.85,1.44-3.38,2.96-4.57,4.53v62.09h-16.67v-80.55l11.93-4.66Z" fill="#f5dbab"/><path d="M1037.95,688.99c1.2,0,2.34.23,3.43.69,1.09.46,2.04,1.08,2.86,1.84.82.76,1.46,1.67,1.92,2.74.46,1.06.69,2.17.69,3.31,0,1.25-.23,2.4-.69,3.43-.46,1.04-1.1,1.95-1.92,2.74-.82.79-1.77,1.4-2.86,1.84-1.09.44-2.23.65-3.43.65s-2.42-.22-3.51-.65c-1.09-.44-2.04-1.05-2.86-1.84-.82-.79-1.46-1.7-1.92-2.74-.46-1.03-.69-2.18-.69-3.43,0-1.14.23-2.25.69-3.31.46-1.06,1.1-1.97,1.92-2.74.82-.76,1.77-1.38,2.86-1.84,1.09-.46,2.26-.69,3.51-.69Z" fill="#f5dbab"/><path d="M1095.62,699.69c2.23,0,4.3-.34,6.21-1.02,1.91-.68,3.55-1.59,4.94-2.74,1.39-1.14,2.46-2.46,3.23-3.96.76-1.5,1.14-3.04,1.14-4.62,0-2.56-.64-4.79-1.92-6.7-1.28-1.91-2.97-3.61-5.06-5.11-2.1-1.5-4.48-2.87-7.15-4.12-2.67-1.25-5.39-2.55-8.17-3.88-2.78-1.33-5.5-2.75-8.17-4.25-2.67-1.5-5.05-3.25-7.15-5.27-2.1-2.01-3.79-4.34-5.06-6.98-1.28-2.64-1.92-5.73-1.92-9.27,0-3.32.71-6.41,2.12-9.27,1.42-2.86,3.39-5.32,5.92-7.39,2.53-2.07,5.54-3.69,9.03-4.86,3.48-1.17,7.3-1.76,11.44-1.76,2.78,0,5.36.19,7.76.57s4.75,1.12,7.07,2.21c2.31,1.09,4.62,2.66,6.9,4.7,2.29,2.04,4.71,4.7,7.27,7.97l-6.13,5.47c-3.16-5.17-6.69-9.03-10.58-11.56-3.89-2.53-8.05-3.8-12.46-3.8-2.4,0-4.58.29-6.54.86-1.96.57-3.64,1.36-5.02,2.37s-2.48,2.19-3.27,3.55c-.79,1.36-1.18,2.81-1.18,4.33,0,2.51.69,4.68,2.08,6.54s3.23,3.53,5.51,5.02c2.29,1.5,4.89,2.87,7.8,4.13,2.91,1.25,5.88,2.53,8.91,3.84,3.02,1.31,5.99,2.72,8.9,4.25,2.91,1.53,5.51,3.28,7.8,5.27,2.29,1.99,4.13,4.29,5.51,6.9s2.08,5.67,2.08,9.15-.65,6.85-1.96,9.93c-1.31,3.08-3.28,5.75-5.92,8.01-2.64,2.26-5.95,4.04-9.93,5.35-3.98,1.31-8.66,1.96-14.05,1.96-2.45,0-4.97-.19-7.56-.57-2.59-.38-5.19-1.13-7.8-2.25-2.61-1.12-5.23-2.68-7.84-4.7-2.61-2.01-5.17-4.66-7.68-7.92l6.78-6.13c2.01,2.83,3.95,5.24,5.8,7.23,1.85,1.99,3.74,3.62,5.68,4.9,1.93,1.28,3.92,2.21,5.96,2.78,2.04.57,4.26.86,6.66.86Z" fill="#f5dbab"/><path d="M1168.57,591.61h4.74v28.43h18.63v7.11h-18.63v58.9c0,1.25.23,2.42.69,3.51.46,1.09,1.09,2.04,1.88,2.86.79.82,1.73,1.46,2.82,1.92,1.09.46,2.29.69,3.59.69,1.85,0,3.54-.46,5.07-1.39,1.52-.93,2.86-2.07,4-3.43l4.17,2.78c-2.29,3.87-5.26,6.92-8.9,9.15-3.65,2.23-8.17,3.35-13.56,3.35-2.78,0-5.2-.48-7.27-1.43-2.07-.95-3.77-2.29-5.11-4-1.34-1.71-2.33-3.76-2.98-6.13-.65-2.37-.98-5-.98-7.88v-58.9h-14.54v-3.1l14.54-4v-23.77l11.85-4.66Z" fill="#f5dbab"/><path d="M1269.46,703.7c-2.18-1.09-4.02-2.63-5.51-4.62-1.5-1.99-2.25-4.26-2.25-6.82-1.96,1.47-3.88,3-5.76,4.58-1.88,1.58-3.92,3.01-6.13,4.29-2.21,1.28-4.66,2.33-7.35,3.15-2.7.82-5.81,1.22-9.35,1.22-3.27,0-6.22-.53-8.86-1.59-2.64-1.06-4.88-2.52-6.7-4.37-1.83-1.85-3.24-4.06-4.25-6.62-1.01-2.56-1.51-5.31-1.51-8.25,0-3.59.71-6.83,2.12-9.72,1.42-2.89,3.36-5.46,5.84-7.72,2.48-2.26,5.35-4.28,8.62-6.05,3.27-1.77,6.75-3.35,10.46-4.74,3.7-1.39,7.52-2.63,11.44-3.72,3.92-1.09,7.73-2.1,11.44-3.02v-5.23c0-3.81-.27-7.03-.82-9.64-.55-2.61-1.39-4.72-2.53-6.33s-2.6-2.75-4.37-3.43c-1.77-.68-3.88-1.02-6.33-1.02s-4.49.46-6.45,1.39-3.69,2.16-5.19,3.72c-1.5,1.55-2.72,3.38-3.68,5.47-.95,2.1-1.59,4.32-1.92,6.66h-15.2c.44-3.59,1.67-6.81,3.72-9.64,2.04-2.83,4.62-5.21,7.72-7.15,3.1-1.93,6.63-3.42,10.58-4.45,3.95-1.03,8.05-1.55,12.29-1.55,5.45,0,10.02.53,13.72,1.59,3.7,1.06,6.67,2.55,8.9,4.45,2.23,1.91,3.83,4.24,4.78,6.99.95,2.75,1.43,5.79,1.43,9.11v51.63c0,2.56.75,4.83,2.25,6.82,1.5,1.99,3.33,3.53,5.51,4.62h-16.67ZM1261.7,655.01c-2.4.76-4.88,1.63-7.43,2.61-2.56.98-5.07,2.08-7.52,3.31-2.45,1.23-4.79,2.55-7.03,3.96-2.23,1.42-4.19,2.94-5.88,4.58-1.69,1.63-3.02,3.35-4,5.15-.98,1.8-1.47,3.68-1.47,5.64,0,2.07.38,4.02,1.14,5.84.76,1.83,1.77,3.43,3.02,4.82,1.25,1.39,2.7,2.48,4.33,3.27,1.63.79,3.32,1.18,5.07,1.18,1.85,0,3.62-.25,5.31-.74,1.69-.49,3.32-1.16,4.9-2,1.58-.84,3.16-1.81,4.74-2.9,1.58-1.09,3.19-2.26,4.82-3.51v-31.21Z" fill="#f5dbab"/><path d="M1322.81,591.61h4.74v28.43h18.63v7.11h-18.63v58.9c0,1.25.23,2.42.69,3.51.46,1.09,1.09,2.04,1.88,2.86.79.82,1.73,1.46,2.82,1.92,1.09.46,2.29.69,3.59.69,1.85,0,3.54-.46,5.07-1.39,1.52-.93,2.86-2.07,4-3.43l4.17,2.78c-2.29,3.87-5.26,6.92-8.9,9.15-3.65,2.23-8.17,3.35-13.56,3.35-2.78,0-5.2-.48-7.27-1.43-2.07-.95-3.77-2.29-5.11-4-1.34-1.71-2.33-3.76-2.98-6.13-.65-2.37-.98-5-.98-7.88v-58.9h-14.54v-3.1l14.54-4v-23.77l11.85-4.66Z" fill="#f5dbab"/><path d="M1407.04,705.49c-5.67,0-10.99-1.06-15.97-3.19-4.98-2.12-9.33-5.01-13.03-8.66-3.7-3.65-6.63-7.94-8.78-12.87-2.15-4.93-3.23-10.17-3.23-15.73,0-6.7.98-12.89,2.94-18.59,1.96-5.69,4.74-10.61,8.33-14.75,3.59-4.14,7.91-7.38,12.95-9.72,5.04-2.34,10.66-3.51,16.87-3.51,5.45,0,10.46.97,15.03,2.9,4.57,1.93,8.51,4.52,11.8,7.76,3.29,3.24,5.85,6.98,7.68,11.23,1.82,4.25,2.74,8.69,2.74,13.32h-62.33c0,5.61.72,10.81,2.17,15.6,1.44,4.79,3.47,8.93,6.09,12.42,2.61,3.49,5.72,6.21,9.31,8.17,3.59,1.96,7.54,2.94,11.85,2.94,3.59,0,7.05-.58,10.38-1.76,3.32-1.17,6.33-2.71,9.03-4.62,2.7-1.91,5-4.08,6.9-6.54,1.91-2.45,3.24-4.98,4-7.6l4.82,2.12c-1.2,4.3-3.13,8.33-5.8,12.09-2.67,3.76-5.79,7.04-9.35,9.84-3.57,2.81-7.45,5.02-11.64,6.66-4.19,1.63-8.44,2.45-12.74,2.45ZM1423.54,647c0-3.16-.56-6.1-1.67-8.82-1.12-2.72-2.66-5.08-4.62-7.07-1.96-1.99-4.25-3.55-6.86-4.7-2.61-1.14-5.42-1.71-8.42-1.71-2.5,0-4.9.56-7.19,1.67-2.29,1.12-4.33,2.67-6.13,4.66-1.8,1.99-3.28,4.34-4.45,7.07-1.17,2.72-1.87,5.67-2.08,8.82l41.42.08Z" fill="#f5dbab"/><path d="M1482.11,618.49h4.74v17.32c2.12-2.29,4.52-4.48,7.19-6.58,2.67-2.1,5.42-3.95,8.25-5.55,2.83-1.61,5.66-2.87,8.5-3.8,2.83-.93,5.53-1.39,8.09-1.39s4.94.44,7.48,1.31c2.53.87,4.87,2.1,7.03,3.68,2.15,1.58,4,3.45,5.56,5.6,1.55,2.15,2.57,4.51,3.06,7.07,1.36-2.45,3.25-4.75,5.68-6.9,2.42-2.15,5.11-4.02,8.05-5.6,2.94-1.58,6.06-2.83,9.35-3.76,3.29-.93,6.52-1.39,9.68-1.39s6.11.69,8.86,2.08c2.75,1.39,5.16,3.27,7.23,5.64,2.07,2.37,3.7,5.15,4.9,8.33,1.2,3.19,1.8,6.58,1.8,10.17v58.98h-16.58v-56.7c0-2.34-.4-4.56-1.18-6.66-.79-2.1-1.87-3.93-3.23-5.51-1.36-1.58-2.96-2.83-4.78-3.76-1.83-.93-3.75-1.39-5.76-1.39-2.29,0-4.62.31-6.99.94s-4.62,1.48-6.74,2.57c-2.12,1.09-4.06,2.36-5.8,3.8-1.74,1.44-3.13,2.98-4.17,4.62v62.09h-16.58v-56.7c0-2.34-.41-4.56-1.22-6.66-.82-2.1-1.91-3.93-3.27-5.51-1.36-1.58-2.97-2.83-4.82-3.76-1.85-.93-3.79-1.39-5.8-1.39-2.12,0-4.32.33-6.58.98-2.26.65-4.47,1.53-6.62,2.61-2.15,1.09-4.15,2.36-6,3.8-1.85,1.44-3.38,2.96-4.58,4.53v62.09h-16.67v-80.55l11.93-4.66Z" fill="#f5dbab"/><path d="M1662.33,705.49c-5.67,0-10.99-1.06-15.97-3.19-4.98-2.12-9.33-5.01-13.03-8.66-3.7-3.65-6.63-7.94-8.78-12.87-2.15-4.93-3.23-10.17-3.23-15.73,0-6.7.98-12.89,2.94-18.59,1.96-5.69,4.74-10.61,8.33-14.75,3.59-4.14,7.91-7.38,12.95-9.72,5.04-2.34,10.66-3.51,16.87-3.51,5.45,0,10.46.97,15.03,2.9,4.57,1.93,8.51,4.52,11.8,7.76,3.29,3.24,5.85,6.98,7.68,11.23,1.82,4.25,2.74,8.69,2.74,13.32h-62.33c0,5.61.72,10.81,2.17,15.6,1.44,4.79,3.47,8.93,6.09,12.42,2.61,3.49,5.72,6.21,9.31,8.17,3.59,1.96,7.54,2.94,11.85,2.94,3.59,0,7.05-.58,10.38-1.76,3.32-1.17,6.33-2.71,9.03-4.62,2.7-1.91,5-4.08,6.9-6.54,1.91-2.45,3.24-4.98,4-7.6l4.82,2.12c-1.2,4.3-3.13,8.33-5.8,12.09-2.67,3.76-5.79,7.04-9.35,9.84-3.57,2.81-7.45,5.02-11.64,6.66-4.19,1.63-8.44,2.45-12.74,2.45ZM1678.83,647c0-3.16-.56-6.1-1.67-8.82-1.12-2.72-2.66-5.08-4.62-7.07-1.96-1.99-4.25-3.55-6.86-4.7-2.61-1.14-5.42-1.71-8.42-1.71-2.5,0-4.9.56-7.19,1.67-2.29,1.12-4.33,2.67-6.13,4.66-1.8,1.99-3.28,4.34-4.45,7.07-1.17,2.72-1.87,5.67-2.08,8.82l41.42.08Z" fill="#f5dbab"/><path d="M1737.4,618.49h4.74v16.91c5.07-5.66,10.32-9.9,15.77-12.7,5.45-2.8,10.97-4.21,16.58-4.21,2.94,0,5.68.65,8.21,1.96,2.53,1.31,4.75,3.1,6.66,5.39,1.91,2.29,3.4,4.97,4.49,8.05,1.09,3.08,1.63,6.36,1.63,9.84v59.96h-16.58v-57.1c0-2.78-.33-5.21-.98-7.31-.65-2.1-1.58-3.85-2.78-5.27-1.2-1.42-2.6-2.49-4.21-3.23-1.61-.74-3.39-1.1-5.35-1.1-1.74,0-3.59.3-5.56.9-1.96.6-3.96,1.43-6,2.49-2.04,1.06-4.07,2.33-6.09,3.8-2.02,1.47-3.95,3.1-5.8,4.9v61.92h-16.67v-80.55l11.93-4.66Z" fill="#f5dbab"/><path d="M1842.46,591.61h4.74v28.43h18.63v7.11h-18.63v58.9c0,1.25.23,2.42.69,3.51.46,1.09,1.09,2.04,1.88,2.86.79.82,1.73,1.46,2.82,1.92,1.09.46,2.29.69,3.59.69,1.85,0,3.54-.46,5.07-1.39,1.52-.93,2.86-2.07,4-3.43l4.17,2.78c-2.29,3.87-5.26,6.92-8.9,9.15-3.65,2.23-8.17,3.35-13.56,3.35-2.78,0-5.2-.48-7.27-1.43-2.07-.95-3.77-2.29-5.11-4-1.34-1.71-2.33-3.76-2.98-6.13-.65-2.37-.98-5-.98-7.88v-58.9h-14.54v-3.1l14.54-4v-23.77l11.85-4.66Z" fill="#f5dbab"/></svg>
